<svg xmlns="http://www.w3.org/2000/svg" viewBox="0 0 465.99 465.99"><defs><style>.cls-1{fill:#fff;}</style></defs><g id="Layer_1" data-name="Layer 1"><circle cx="232.99" cy="232.99" r="232.99"/><path class="cls-1" d="M74.16,229.21A1.94,1.94,0,0,0,72,227.07h-3.7V213h15c4.58,0,7,2.24,7,5.65v.68a11.31,11.31,0,0,1-.09,1.17h.19c2.34-3.9,7-8.67,15.87-8.67,10.12,0,18,4.68,18,18.79v16.26a2,2,0,0,0,2.14,2.14h3.7v14.12H114.56c-5,0-7.1-2.15-7.1-7.11V233.69c0-4.68-1.85-6.62-5.55-6.62-5.26,0-8.47,2.92-9.93,7.2a20.2,20.2,0,0,0-1,6.62v22.2H74.16Z"/><path class="cls-1" d="M139.78,229.21a2,2,0,0,0-2.15-2.14h-3.7V213h15.58c5,0,7.11,2.14,7.11,7.11v26.77a2,2,0,0,0,2.14,2.14h3.7v14.12H146.88c-5,0-7.1-2.15-7.1-7.11ZM141,193.48h14.12v13.63H141Z"/><path class="cls-1" d="M172.29,229.21a1.94,1.94,0,0,0-2.14-2.14h-3.7V213h15.09c4.57,0,7,2.24,7,5.65v.68a10.2,10.2,0,0,1-.1,1.17h.19c2.34-3.51,6.82-8.67,14.7-8.67,6.33,0,11.39,2.83,14,8.47h.2a19.39,19.39,0,0,1,16.06-8.47c9.15,0,16.26,5,16.26,18.79v16.26A2,2,0,0,0,252,249h3.7v14.12H240.14c-5,0-7.1-2.15-7.1-7.11V233.39c0-3.7-.68-6.32-3.9-6.32-5.06,0-8,4.08-9,9.63a25.85,25.85,0,0,0-.59,5.65v20.74H202.66v-29.7c0-3.7-.68-6.32-3.89-6.32-5,0-7.79,3.89-9,9.24a29.37,29.37,0,0,0-.68,6v20.74H172.29Z"/><path class="cls-1" d="M264.67,209.74a2,2,0,0,0-2.14-2.14h-3.7V193.48h15.58c5,0,7.1,2.14,7.1,7.11v11.78c0,2.53-.19,4.28-.19,4.28h.19s4.68-4.87,13.54-4.87c13.62,0,22.58,10.71,22.58,26.29,0,15.86-10,26.18-23.36,26.18-9.25,0-13.73-5.16-13.73-5.16h-.19s.09,1.27.09,2.83v1.17H264.67Zm26.19,40.59c5.26,0,9.83-4.28,9.83-12,0-7.5-4-12.36-9.83-12.36-5.06,0-9.83,3.69-9.83,12.36C281,244.39,284.24,250.33,290.86,250.33Z"/><path class="cls-1" d="M326.69,209.74a2,2,0,0,0-2.15-2.14h-3.7V193.48h15.58c5,0,7.11,2.14,7.11,7.11v46.24a2,2,0,0,0,2.14,2.14h3.7v14.12H333.79c-5,0-7.1-2.15-7.1-7.11Z"/><path class="cls-1" d="M363.87,269.51c2.73,0,5.84-.78,7.5-5l.58-1.46-15.87-34.47c-.58-1.26-1-1.55-2.14-1.55h-1.85V213h12.27A5.88,5.88,0,0,1,370.2,217l7.4,20.25a63,63,0,0,1,1.85,7.79h.19s.88-5.07,1.66-7.79L386.85,217c.68-2.63,3.31-4.09,5.93-4.09h12.56v14.12h-1.85a2.09,2.09,0,0,0-2.33,1.55L386,268.44c-4.28,11.1-13,15.09-20.93,15.09a21.55,21.55,0,0,1-14.12-5.35l6-11.88S359.88,269.51,363.87,269.51Z"/></g></svg>