<svg xmlns="http://www.w3.org/2000/svg" viewBox="0 0 144.94 144.94"><defs><style>.cls-1{fill:#fff;}</style></defs><g id="Layer_1" data-name="Layer 1"><circle cx="72.47" cy="72.47" r="72.47"/><path class="cls-1" d="M49.44,63.5a2,2,0,0,0-2.14-2.15H43.6V47.24h15c4.58,0,7,2.24,7,5.65v.68a9.93,9.93,0,0,1-.1,1.16h.2c2.34-3.89,7-8.66,15.87-8.66,10.12,0,18,4.67,18,18.79V81.12a2,2,0,0,0,2.14,2.14h3.7V97.37H89.84c-5,0-7.11-2.14-7.11-7.1V68c0-4.67-1.85-6.62-5.54-6.62-5.26,0-8.47,2.92-9.93,7.21a19.9,19.9,0,0,0-1,6.62V97.37H49.44Z"/></g></svg>